# File created by Blade
# Date/Time:  Tue Apr 07 20:45:22 2015
# Frame Rate: 120.000 fps
#------------------------------------------------------
:FULLY-SPECIFIED
:DEGREES
402
root 2.911609 33.848133 -4.814138 7.416352 -14.109960 -41.686597
Spine 11.064274 23.713246 33.397830
Head -1.058904 -11.015673 8.056080
LeftShoulder -23.500188 38.664124 13.226630
LeftArm 62.425286 -56.681156 -92.842818
LeftForeArm 9.625558 -0.000000 19.435209
LeftHand 5.384489 -0.000000 13.326796
LeftHandThumb1 -26.253704 0.000000 33.147579
RightShoulder -10.213307 33.476498 -33.237526
RightArm 72.301965 79.298941 105.807064
RightForeArm 46.157268 -0.000000 58.124116
RightHand 0.938944 -0.000000 28.851454
RightHandThumb1 -24.326973 -0.000000 -32.862282
LeftUpLeg -8.438330 -4.025766 37.316499
LeftLeg 29.112118 -0.000000 -0.000000
LeftFoot -21.426754 11.427630 -27.023395
LeftToeBase -8.640943 -0.000000 0.000000
RightUpLeg -136.495303 -50.119815 22.432760
RightLeg -10.244472 -0.000000 0.000000
RightFoot 40.038781 -19.126169 11.088784
RightToeBase 10.665688 -0.000000 -0.000000
403
root 2.909738 33.850890 -4.841045 7.607409 -14.219728 -41.982893
Spine 10.964026 24.050528 33.762030
Head -0.760846 -11.044471 7.863402
LeftShoulder -23.455850 38.481650 13.256116
LeftArm 62.319009 -56.631933 -92.480182
LeftForeArm 9.781789 -0.000000 19.316388
LeftHand 5.547872 -0.000000 12.905571
LeftHandThumb1 -26.253704 0.000000 33.147579
RightShoulder -10.222748 33.570650 -33.229744
RightArm 70.918550 79.319033 104.317932
RightForeArm 45.835828 -0.000000 58.012164
RightHand 1.000836 -0.000000 28.743484
RightHandThumb1 -24.326973 -0.000000 -32.862282
LeftUpLeg -8.536600 -4.326762 37.621492
LeftLeg 29.189618 -0.000000 -0.000000
LeftFoot -21.522087 11.695558 -27.310764
LeftToeBase -8.803728 -0.000000 0.000000
RightUpLeg -136.164007 -50.164650 22.307419
RightLeg -10.148242 -0.000000 0.000000
RightFoot 40.121665 -19.230565 10.960004
RightToeBase 10.563318 -0.000000 -0.000000
404
root 2.898471 33.856601 -4.873351 7.823007 -14.406289 -42.267661
Spine 10.908911 24.435305 34.032882
Head -0.620985 -10.998197 7.847937
LeftShoulder -23.468446 38.292638 13.310723
LeftArm 62.174218 -56.599913 -92.131096
LeftForeArm 9.893967 -0.000000 19.275869
LeftHand 5.526826 -0.000000 12.822970
LeftHandThumb1 -26.253704 0.000000 33.147579
RightShoulder -10.196807 33.641955 -33.163221
RightArm 69.106172 79.359981 102.394485
RightForeArm 45.675239 -0.000000 57.887694
RightHand 0.987934 0.000000 28.577041
RightHandThumb1 -24.326973 -0.000000 -32.862282
LeftUpLeg -8.686102 -4.197632 37.997511
LeftLeg 29.406083 -0.000000 -0.000000
LeftFoot -21.413852 11.470977 -27.589434
LeftToeBase -9.081380 -0.000000 0.000000
RightUpLeg -135.732275 -50.193890 21.999985
RightLeg -10.036210 -0.000000 0.000000
RightFoot 40.187510 -19.345708 10.911465
RightToeBase 10.523184 -0.000000 -0.000000
405
root 2.876508 33.868280 -4.914562 8.076265 -14.659386 -42.564771
Spine 10.904955 24.887317 34.240909
Head -0.664893 -10.971340 8.014016
LeftShoulder -23.501102 38.150123 13.379587
LeftArm 62.181331 -56.629223 -91.999146
LeftForeArm 10.019115 -0.000000 19.307204
LeftHand 5.349028 -0.000000 13.133521
LeftHandThumb1 -26.253704 0.000000 33.147579
RightShoulder -10.147200 33.586347 -33.025689
RightArm 67.129415 79.418131 100.281967
RightForeArm 45.727277 -0.000000 57.798550
RightHand 1.000355 0.000000 28.472365
RightHandThumb1 -24.326973 -0.000000 -32.862282
LeftUpLeg -8.809330 -3.734166 38.425184
LeftLeg 29.597010 -0.000000 -0.000000
LeftFoot -21.262089 10.966666 -27.964588
LeftToeBase -8.931658 -0.000000 0.000000
RightUpLeg -134.784263 -50.510694 21.162835
RightLeg -10.181664 -0.000000 0.000000
RightFoot 40.184226 -20.088553 11.375413
RightToeBase 10.792748 -0.000000 -0.000000
406
root 2.849933 33.882253 -4.956157 8.304783 -14.901908 -42.792364
Spine 10.935099 25.282097 34.326034
Head -0.888859 -10.911204 8.304604
LeftShoulder -23.566817 37.991564 13.442079
LeftArm 62.083878 -56.727341 -91.804102
LeftForeArm 10.179549 -0.000000 19.418213
LeftHand 5.257651 -0.000000 13.076002
LeftHandThumb1 -26.253704 0.000000 33.147579
RightShoulder -10.131427 33.468357 -32.885729
RightArm 65.902412 79.454189 98.973451
RightForeArm 45.606131 -0.000000 57.724019
RightHand 1.043340 -0.000000 28.454787
RightHandThumb1 -24.326973 -0.000000 -32.862282
LeftUpLeg -8.861315 -3.084586 38.780687
LeftLeg 29.643173 -0.000000 -0.000000
LeftFoot -21.105120 10.481371 -28.246150
LeftToeBase -8.793386 -0.000000 0.000000
RightUpLeg -134.248278 -50.565907 20.578903
RightLeg -10.033459 -0.000000 0.000000
RightFoot 40.293157 -20.198861 11.465841
RightToeBase 10.428311 -0.000000 -0.000000
407
root 2.820004 33.898550 -4.998220 8.531714 -15.081638 -42.928738
Spine 10.919804 25.611763 34.249503
Head -1.242703 -10.842037 8.688357
LeftShoulder -23.642801 37.907837 13.508388
LeftArm 62.166535 -56.901121 -91.854750
LeftForeArm 10.320067 0.000000 19.573609
LeftHand 5.312259 0.000000 12.995019
LeftHandThumb1 -26.253704 0.000000 33.147579
RightShoulder -10.181914 33.300373 -32.749648
RightArm 65.400920 79.459076 98.446701
RightForeArm 45.379305 -0.000000 57.717577
RightHand 0.969817 -0.000000 28.396101
RightHandThumb1 -24.326973 -0.000000 -32.862282
LeftUpLeg -8.880874 -2.362059 39.065019
LeftLeg 29.520975 -0.000000 -0.000000
LeftFoot -20.869855 10.015394 -28.253986
LeftToeBase -8.716951 -0.000000 0.000000
RightUpLeg -133.972529 -50.589322 20.102011
RightLeg -9.750717 -0.000000 0.000000
RightFoot 40.387960 -20.008868 11.467298
RightToeBase 10.287653 -0.000000 -0.000000
